<svg version="1" xmlns="http://www.w3.org/2000/svg" width="666.667" height="666.667" viewBox="0 0 500.000000 500.000000"><path d="M316.5 143c.3.5 1.1 1 1.6 1 .6 0 .7-.5.4-1-.3-.6-1.1-1-1.6-1-.6 0-.7.4-.4 1zM323.4 147.3c12.6 10.3 32.6 32.6 32.6 36.3 0 .7.4 1.4.8 1.6 1 .4 5.6 10.2 7.1 15.3.7 2.2 1.6 4.9 2.1 6 3.6 8.5 4.8 42.6 2.1 57-1.5 8.1-5 20.5-6.1 22-.4.5-1.1 2.5-1.5 4.2-.3 1.8-1.1 3.3-1.6 3.3s-.9.6-.9 1.4c0 1.5-5.1 10.8-9.4 17.1-10.6 15.4-27 30.2-43.6 39.3-1.9 1.1-4.8 2.7-6.5 3.6-2.9 1.5-3.1 1.5-4.7-.5-1-1.2-1.8-2.7-1.8-3.5 0-.7-.9-1.9-1.9-2.6-2.5-1.8-2-2.4 5.9-7.9 9.5-6.6 14-10.5 20-17.5 6.2-7.2 12-18 12-22.3 0-5.4-2.3-5.6-18.8-1.7-25 5.9-27.1 6.1-61.2 6.1-34 0-40.5-.7-64-6.7-11.8-3.1-12.5-3.1-14.4-1.3-3 3-.1 10.4 8.8 22.9 4.5 6.3 15.4 16.7 20.4 19.6 1.5.8 2.9 1.8 3.2 2.1.3.4 1.4.9 2.5 1.3s3.3 1.8 5 3.1l2.9 2.4-2.2 1.9c-1.2 1.1-2.2 2.4-2.2 2.9 0 .6-.7 1.6-1.5 2.3-2.2 1.8-14.4-5-26.9-15-15.6-12.4-27.3-26.2-34.6-40.6-1.9-3.8-3.8-7.1-4.2-7.2-.5-.2-.8-1-.8-1.8s-.9-3.5-2-5.9c-1.8-4-4.6-15.4-6.5-27-1-6.2-.7-37.9.5-40.9.5-1.5 1-4 1-5.5s.4-3.1.8-3.6c.5-.6 1.4-2.9 2.1-5.3 2.4-8.5 10.2-23 16.7-31.3 2.9-3.6 16.5-17.2 20.2-20.2 1.9-1.5 2.8-2.7 2-2.7-.7 0-2.5 1.1-4 2.5s-2.9 2.5-3.2 2.5c-1.7 0-15.5 14.1-20.8 21.3-2.2 2.8-4.6 6-5.4 7-.7.9-1.4 2.1-1.4 2.6s-.6 1.6-1.4 2.3c-2.7 2.8-12.6 24.1-12.6 27.4 0 .8-.4 2.2-.9 3.2-1.7 3.1-3 9.6-4.7 22.2-1.6 12.7-1.5 22 .7 36 2.5 16.4 9.7 35.3 18.1 47.7 1.5 2.3 2.8 4.4 2.8 4.8 0 .4.6 1.2 1.3 2 .6.7 2.1 2.6 3.2 4.1 3.4 4.9 20.7 21.8 26 25.4 2.8 1.9 5.5 3.8 6 4.3 1.6 1.3 7.6 4.5 14.5 7.8 8.5 4 9.2 4.3 21.5 9 3.3 1.2 7.7 3.7 9.7 5.5 5.2 4.6 7.9 6.2 13.9 8.4 5.8 2.2 19.3 2.8 20.4 1 .3-.5 1.6-1 2.8-1 2.9 0 11.5-5 15.1-8.9 1.7-1.7 3.4-3.1 3.9-3.1.6 0 6.2-2.1 12.6-4.6 12.5-4.9 27.3-12.4 30.7-15.5 1.1-1 2.3-1.9 2.7-1.9.4 0 1.7-.8 2.9-1.7 3.7-2.8 25.8-25.3 25.8-26.3 0-.5.6-1.5 1.3-2.2 4.1-4.1 14.5-23.7 17.4-32.8 12.8-39.9 8.1-79.4-13.5-113.5-5.8-9-10.2-14.4-18.1-21.9-8.3-8-7.8-7.5-14.1-12.1-3-2.2-5.6-4.3-5.8-4.7-.2-.5-.9-.8-1.5-.7-.7 0 .6 1.4 2.7 3.2zm-77.1 178.1c.4 1-.7 1.9-3.1 2.9-6.2 2.5-8.7 6-8.7 12.2 0 6.2 1.7 8.7 8.5 11.9l4.5 2.1.3 8.8c.3 8.5.2 8.7-2 8.7-2.8-.1-6.3-2.9-7.2-5.8-.7-2.2-4-3-5-1.3-1.6 2.5 4.7 11 8.1 11.1 2.7 0 6.3 2.4 6.3 4.2 0 1.1.7 1.8 2 1.8s2-.7 2-1.9c0-1.4 1.3-2.4 4.5-3.7 6.7-2.5 9.5-6.3 9.5-12.9 0-4.8-.4-5.7-3.2-8.4-1.8-1.7-4.5-3.3-6-3.6-4.4-1-5.1-2.7-4.3-10.5.9-9.1 2.3-9.3 8.4-1.1 2.6 3.6 5.6 2.2 4.7-2.1-.8-4-3.9-7.4-8.8-9.6-2.7-1.2-3.5-2.1-2.9-3 .7-1.1 2.5-1.2 10.7-.1 9.3 1.1 12.4 2.4 12.4 4.8 0 .6.4 1.1.9 1.1 1.4 0 3.6 15 3.6 25 0 8.7-.3 10.1-3.3 16.2-3.8 7.8-8.2 11.9-15.4 14.2-5.6 1.8-18.4 2.1-23.8.6-4.8-1.3-12.9-6.9-14.5-10-5.3-10.2-6.4-17.2-4.6-31.6 2-16.4 4.2-19.3 15.8-20.4 4.3-.4 8.3-.8 8.9-.9.7 0 1.4.5 1.7 1.3zm1.1 10.8c.9 3.6.7 11.8-.4 11.8-2.3 0-5.9-2.4-6.4-4.4-1-3.7-.7-5.5 1.4-7.6 2.6-2.6 4.6-2.5 5.4.2zm11.1 22c4.8 4.2 1.9 13.8-4.2 13.8-2.2 0-2.3-.3-2.3-8 0-7.3.2-8 2-8 1.1 0 3.1 1 4.5 2.2z"/><path d="M187.5 171.4c-10.8 4.2-12.5 5-12.5 5.8 0 .4-.4.8-1 .8-2.4 0-11.1 8.9-10.7 11 .4 2.5 3.2 2.2 9.8-1 12.8-6.2 21.2-8.2 34.6-8.2 13.8-.1 15.8-.9 13-5.2-2.8-4.3-7.1-5.6-17.6-5.5-7.6 0-10.9.5-15.6 2.3zM283.3 171c-4 2.4-5.9 5.6-4.3 7.5.8.9 4.4 1.3 13.3 1.3 14.5.1 22.5 2.1 37.3 9.5 4.2 2.1 7.4 1.8 7.4-.6 0-2.1-8.8-9.8-14.7-13-9.6-5.1-15.8-6.7-26.2-6.7-7.7 0-10.2.4-12.8 2zM203 216.5c0 1.9-.5 2.5-2.2 2.5-3 0-8.3 3.3-10.3 6.4-2.5 3.8-3 9.8-1.1 13.7 1.7 3.6 6.7 7.4 11 8.5 2.6.6 2.6.6 2.6 11.5v10.8l-3.2-1.1c-3.9-1.4-5-2.4-6.9-6.3-.8-1.8-2.3-3.1-3.7-3.3-1.8-.3-2.2.1-2.2 2.3 0 5.2 5.2 10.9 11.7 12.6 3.1.8 4.3 1.7 4.5 3.3.4 3 4.5 3.5 5 .6.2-1.6 1.7-2.7 5.2-4.1 8-3 11.6-7.6 11.6-14.7 0-6.6-5.9-12.7-15.3-15.6-1.6-.5-1.7-1.7-1.5-9.8.3-9.2.3-9.3 2.7-9 3 .3 5.7 2.6 7.4 6.1 1.7 3.6 4.1 3.3 4.5-.4.5-4.7-6.5-11.5-11.7-11.5-1.4 0-2.3-.9-2.7-2.5-.4-1.8-1.3-2.5-3-2.5-1.9 0-2.4.5-2.4 2.5zm.4 9.3c-.1.7-.2 4.6-.2 8.8-.2 7.3-.3 7.5-2.4 6.9-4.2-1.3-6.8-4.6-6.8-8.4.1-4.1 1.7-6.6 5.1-8 2.9-1.1 4.4-.9 4.3.7zm10 25.6c8.1 4.2 7.2 13.8-1.6 17.4-3.4 1.4-3.8.4-3.8-10.4 0-9.1.4-9.6 5.4-7zM290.6 216.4c-.4 1.7-1.5 2.5-4 3-6.7 1.3-11.6 7.5-11.6 14.8 0 3.2.7 4.6 4.3 8.1 2.3 2.3 5.8 4.6 7.7 5.2l3.5 1 .3 9.4c.4 11.7-.4 13-5.9 9.9-2.5-1.4-4.3-3.3-5.1-5.5-1.3-3.4-3.7-4.3-5.6-2-.8 1-.6 2.4.8 5.3 2.1 4.2 6.1 7.2 12 9 2.4.7 3.6 1.8 3.8 3.2.5 3.1 4.2 3 4.2-.1 0-1.9.8-2.5 4.4-3.5 8.8-2.3 13.6-9.5 12.1-18.4-1-5.7-5.2-9.2-14.7-12.2-1.6-.5-1.8-1.9-1.8-10.1 0-6.2.4-9.5 1.1-9.5 2.8 0 7.5 3.3 9 6.3 1 1.9 2.3 3.2 3.5 3.2 1.6 0 1.9-.6 1.6-3.5-.3-4.1-5.4-9.6-9.9-10.6-4.9-1-5.3-1.3-5.3-3.4 0-2.9-3.6-2.6-4.4.4zm-.1 16.7c0 8.3 0 8.4-2.5 8.1-8.6-.9-9.4-13.4-1-16.5 3-1.1 3.5.1 3.5 8.4zm10.3 18.6c4 2.6 5.1 4.4 5.2 8.4 0 2.5-.7 4.2-2.2 5.5-2.8 2.4-7.4 4.5-8.2 3.7-.3-.4-.6-4.8-.6-10 0-10.2.5-10.9 5.8-7.6z"/></svg>